PathFileType	4	(X/Y/Z)	6_coords_data.trc
DataRate	CameraRate	NumFrames	NumMarkers	Units	OrigDataRate	OrigDataStartFrame	OrigNumFrames
30.0	30.0	6	21	m	30.0	10	66
Frame#	Time	THUMB_TIP	THUMB_IP	THUMB_MCP	THUMB_CMC	INDEX_TIP	INDEX_DIP	INDEX_PIP	INDEX_MCP	MIDDLE_TIP	MIDDLE_DIP	MIDDLE_PIP	MIDDLE_MCP	RING_TIP	RING_DIP	RING_PIP	RING_MCP	PINKY_TIP	PINKY_DIP	PINKY_PIP	PINKY_MCP	WRIST
X1	Y1	Z1	X2	Y2	Z2	X3	Y3	Z3	X4	Y4	Z4	X5	Y5	Z5	X6	Y6	Z6	X7	Y7	Z7	X8	Y8	Z8	X9	Y9	Z9	X10	Y10	Z10	X11	Y11	Z11	X12	Y12	Z12	X13	Y13	Z13	X14	Y14	Z14	X15	Y15	Z15	X16	Y16	Z16	X17	Y17	Z17	X18	Y18	Z18	X19	Y19	Z19	X20	Y20	Z20	X21	Y21	Z21
8	0.2999999999999987	0.5349924143879302	-0.008779537790180703	-0.09919639094255091	0.5190569366021669	-0.0062977123723670925	-0.11556407527280779	0.48824162945517	-0.009940527241488306	-0.1180067674895113	0.47690436068695274	-0.022083435778368354	-0.07660741835039839	0.49445865935715405	6.185903771238621e-05	-0.10783796146380543	0.5103553197687283	-0.0004538297563204674	-0.11649996197331833	0.524826137064816	0.01924368188101233	-0.12238327014817962	0.4942384558018138	0.03880698122519666	-0.10012777267625514	0.4968698187708964	-0.016062283420411827	-0.10604276576449481	0.5124162894833919	-0.008085747968293533	-0.10128018972136238	0.5339754766129555	0.011333337597377646	-0.10402064882625771	0.5074760392608436	0.03856321837048704	-0.08051615278605852	0.5271223310880844	-0.0014201074399489144	-0.09665735647836023	0.5159139557549014	-0.009683769274473897	-0.08520815495707014	0.5381958069512152	0.0007758866460653158	-0.08898898612088452	0.5217260408839443	0.028997079682590132	-0.06517655442471831	0.5080945340586164	-0.019292826113577077	-0.0676473971152822	0.5215563559611167	-0.023171782769784044	-0.07748269306022604	0.5407298214027241	-0.014667189530485403	-0.0784112057384203	0.5289750741147191	0.008710023228950314	-0.053587521668660945	0.4622830810018609	-0.023011742144276925	-0.05198982011943098
9	0.33333333333333187	0.5350096655585245	-0.008769088768305733	-0.0991438563917683	0.5190670743739525	-0.006305259383242223	-0.11550733191144036	0.4882578625195565	-0.009962610104246594	-0.1180045805203125	0.47690851627496456	-0.02209471246901684	-0.07660537241156838	0.49446171739541	9.967570564639594e-05	-0.10779871229592833	0.5103517017242555	-0.00045852856027439604	-0.11647032149068305	0.5248462427826642	0.019224645527153084	-0.12234320582039102	0.49425648334317096	0.03881089985943964	-0.10011076662301716	0.49692128850595485	-0.016077131538261957	-0.10606376955405772	0.5124439735444534	-0.00808007849544412	-0.1012582111238718	0.5339983344485296	0.011345330628775518	-0.10399180882168982	0.5074886807099558	0.03856658540355973	-0.08048884160162983	0.5271677041535023	-0.001414365368814674	-0.09660609182427994	0.5159229778116807	-0.009660785479900569	-0.08518012644497727	0.5382167397874729	0.0007751099653766635	-0.08895640003437416	0.5217370975896848	0.028992195852669878	-0.06514593403595219	0.5081475781996542	-0.01928050723227237	-0.06761345933866092	0.5215986489323076	-0.023183057454105427	-0.07745412994138046	0.5407636239523439	-0.014659438758336751	-0.0783834715419394	0.528981573003968	0.008698020838646348	-0.05355413792975443	0.4622830810018609	-0.023011742144276925	-0.051989820119430985
10	0.3666666666666651	0.5350006239796943	-0.008774064845436969	-0.09909389693270358	0.5190643747798172	-0.006328659173152507	-0.11546631130986157	0.4882590936697151	-0.009990922451559858	-0.11800451607055845	0.4769116588852442	-0.02212208860281273	-0.07660450964999281	0.49446453862923767	8.840980427848866e-05	-0.10776288008525575	0.5103497825569414	-0.0004977767420802914	-0.11644132526225728	0.5248691415613859	0.019170806186410316	-0.1223017768391534	0.4942872633822596	0.038803654070451055	-0.1000996124176563	0.49696179366021354	-0.016155572297293253	-0.1059529090899669	0.5124667286987024	-0.008069516610402117	-0.10123987472973432	0.5340308847260378	0.011346651803223029	-0.10396184625098309	0.5075114640394531	0.03856185875107254	-0.08046289397149481	0.5272560830032188	-0.0014556718796482349	-0.0965800585551111	0.5159679156018905	-0.009678756808508049	-0.08518013965310359	0.5382568668022119	0.0007780245461083135	-0.08892691921580091	0.521757166617221	0.02897823529789101	-0.06511035268406795	0.5081818739908743	-0.01931890766116584	-0.06759371596148703	0.5216534923621418	-0.023177388914315866	-0.07742365089911614	0.540817116918603	-0.014650118535592949	-0.0783473244059044	0.5289938790745959	0.008674432824619993	-0.053506635974847866	0.462283081001861	-0.023011742144276925	-0.05198982011943098
11	0.39999999999999825	0.534999328347903	-0.0087198288941579	-0.0990264086359584	0.5190704171424348	-0.006282846239562323	-0.11540721763153347	0.4882721376888236	-0.00996945634736246	-0.11799466591320511	0.47692348650218974	-0.022107250576846482	-0.0765969356917688	0.49448152467709805	0.00014317654740847452	-0.1076952412634515	0.5103645152231614	-0.0004707885422802205	-0.11637588975203272	0.5248916352618342	0.01919974154474513	-0.12221051591635745	0.4943000081418498	0.03884738212400651	-0.10003488370845866	0.4969716458437726	-0.016198263816026737	-0.10589678025721436	0.5124342181260745	-0.008040172299753956	-0.10116873613446076	0.5340009880978926	0.011373281328001417	-0.10388936128792735	0.5075086136287643	0.03860347477423265	-0.08037726693484384	0.5272211199847341	-0.0014767449223851425	-0.09658559446577979	0.5159667081769955	-0.009655298860487105	-0.08512045293401535	0.538252147299431	0.0008135304835713564	-0.08885445806057836	0.5217510466692749	0.029005630274858918	-0.06502926086618886	0.5081991688957372	-0.019267453822015224	-0.06752175836984384	0.5216706759837817	-0.023122033694361832	-0.07735337628270368	0.5408354136309991	-0.014596924068739248	-0.07827389558420976	0.5289805481961933	0.008706141882283136	-0.05342811659048609	0.462283081001861	-0.023011742144276925	-0.05198982011943099
12	0.43333333333333146	0.5350151412761849	-0.008680794362461386	-0.09894306037208918	0.519093284888179	-0.006245854333670642	-0.11533103023464111	0.48830393741903444	-0.009962445377999507	-0.1179811308805604	0.47692255313222776	-0.02211910008177398	-0.0765979236809096	0.4944733861268852	0.00015263499174289485	-0.10765484140209891	0.5103676645562913	-0.00042211320672358443	-0.11631749559794873	0.5249235472143068	0.019230495136756343	-0.1221408192489112	0.4943173512140965	0.038877396499419015	-0.09998464342268798	0.49693741811762837	-0.016222850710449488	-0.10564831726071768	0.5124271400812328	-0.007998829008661001	-0.10112792120077552	0.5339940377945143	0.011416123805480072	-0.10383681031802139	0.507511829630681	0.03863602956838186	-0.08030136254182313	0.5272437106436055	-0.0016078625009975367	-0.09667265602486635	0.516002753571402	-0.009634496181941343	-0.08508757787006646	0.5382821746096047	0.0008537178481319296	-0.08880305141483551	0.5217582300950957	0.029015323069841115	-0.06495763082684763	0.508259369119527	-0.019247253069518577	-0.06748810483485815	0.5217241534429791	-0.02310964489038203	-0.0773258643635845	0.5408753837284728	-0.01455153945106169	-0.07822097823425254	0.5289806689955373	0.008709139081315653	-0.05335453404463243	0.4622830810018609	-0.023011742144276925	-0.051989820119430985
13	0.4666666666666647	0.5350591267262551	-0.008577689696062651	-0.09887689330261913	0.5191305050313575	-0.006159440312384579	-0.11526075978215256	0.4883503171452035	-0.00991909355609355	-0.11795613381559011	0.4769424007124885	-0.022092373067903792	-0.07658512091293643	0.4945084149020468	0.0002683442198490038	-0.10760293613679907	0.5104105266168835	-0.0003180124394536188	-0.1162504229900383	0.5249668839110841	0.019340399462946967	-0.12205293423941413	0.4943246945436979	0.038937373908944584	-0.0999022927738458	0.49697779175735823	-0.016180676976623953	-0.10556585585240225	0.5124593816251622	-0.007921278950834942	-0.10108225022559854	0.5339997873062546	0.011526418730239296	-0.10376693419200972	0.507498368815768	0.038695106519680444	-0.08019395935233442	0.5272610580054902	-0.0014646178000091714	-0.09660948364314013	0.5160476410015052	-0.009574771748559918	-0.08505592652744842	0.5383117638442713	0.0009586997508687078	-0.08873489257961023	0.5217390722040427	0.02906261341997729	-0.0648552618815195	0.5083840958269296	-0.01915048648060247	-0.06746738964232342	0.5218311655640273	-0.023039152908169158	-0.0773190183858736	0.5409544507528029	-0.014414708531154563	-0.0781739697157947	0.5289625483784258	0.008750912930390764	-0.053265503068009985	0.4622830810018608	-0.023011742144276925	-0.051989820119430985
